<?xml version="1.0" encoding="utf-8"?>
<!-- Generator: Adobe Illustrator 24.0.2, SVG Export Plug-In . SVG Version: 6.00 Build 0)  -->
<svg version="1.1" id="Ebene_1" xmlns="http://www.w3.org/2000/svg" xmlns:xlink="http://www.w3.org/1999/xlink" x="0px" y="0px"
	 viewBox="0 0 450.7 114.8" style="enable-background:new 0 0 450.7 114.8;" xml:space="preserve">
<style type="text/css">
	.st0{fill:#71B790;}
	.st1{fill:#202A44;}
</style>
<g>
	<g>
		<path class="st0" d="M106.7,55.5l3.5,3.5l3.5-3.5c-1-29.5-24.7-53.3-54.2-54.3l3.4,3.4l-3.5,3.5C85,9.2,105.7,29.8,106.7,55.5z"/>
		<path class="st0" d="M4.9,52l3.5,3.5C9.3,29.9,30,9.3,55.6,8.2l3.5-3.5l-3.5-3.5C26.2,2.2,2.4,26,1.4,55.5L4.9,52z"/>
		<path class="st0" d="M110.2,62.8l-3.5-3.5c-0.4,11.5-4.9,22.1-11.9,30.3l-15-26.5h3.3c8.2,0,14.9-6.7,14.9-14.9
			c0-8.2-6.7-14.9-14.9-14.9H63.5c-1.9,0-3.5,1.6-3.5,3.5v32.5L40.2,35c-0.6-1.1-1.8-1.7-3-1.7c-1.2,0-2.4,0.7-3,1.7L11.4,74.5
			c-1.8-4.7-2.8-9.8-3-15.1l-3.5-3.5l-3.5,3.5c1,29.5,24.7,53.3,54.2,54.3l-3.4-3.4l3.5-3.5C38.4,105.9,23.3,96.3,15,82.1l22.2-38.4
			L60.4,84c0.8,1.4,2.4,2,3.9,1.6c1.5-0.4,2.6-1.8,2.6-3.4v-42h16.1c4.4,0,7.9,3.6,7.9,7.9s-3.6,7.9-7.9,7.9h-9.3
			c-1.2,0-2.4,0.7-3,1.7c-0.6,1.1-0.6,2.4,0,3.5l18.9,33.3c-8.2,7.1-18.7,11.5-30.2,11.9l-3.5,3.5l3.5,3.5
			c29.5-1,53.3-24.7,54.3-54.2L110.2,62.8z"/>
	</g>
	<g>
		<g>
			<path class="st0" d="M238.3,23.3h8.2v8.2h-8.2V23.3z"/>
		</g>
		<g>
			<path class="st1" d="M141,78.5c-1.9,0-3.7-0.3-5.3-0.9c-1.6-0.6-2.9-1.4-4.1-2.5c-1.1-1-2-2.3-2.6-3.7c-0.6-1.4-0.9-3-0.9-4.7
				c0-1.6,0.3-3.1,0.9-4.6c0.6-1.4,1.5-2.7,2.7-3.7c1.2-1.1,2.7-1.9,4.5-2.5c1.8-0.6,3.8-0.9,6.1-0.9h9.6v-1.8c0-2.1-0.7-3.8-2-5
				c-1.3-1.2-3.2-1.8-5.5-1.8c-2,0-3.5,0.4-4.6,1.3c-1.1,0.9-1.8,1.9-2.2,3h-8.4c0.4-1.6,1.1-3.1,1.9-4.5c0.9-1.4,1.9-2.6,3.2-3.6
				c1.3-1,2.8-1.8,4.5-2.4c1.7-0.6,3.6-0.9,5.6-0.9c5,0,8.9,1.2,11.6,3.7c2.7,2.5,4.1,5.9,4.1,10.2v24.6h-7.1l-0.7-4.6h-0.4
				c-0.4,0.6-0.9,1.2-1.5,1.9c-0.6,0.6-1.4,1.2-2.4,1.7c-1,0.5-2,0.9-3.2,1.2C143.7,78.3,142.4,78.5,141,78.5z M142.8,71.4
				c2.9,0,5.1-0.7,6.8-2.2c1.7-1.5,2.5-3.5,2.5-6v-1.8h-9.3c-2.3,0-4,0.5-5,1.4c-1,1-1.5,2.1-1.5,3.6c0,1.4,0.5,2.6,1.6,3.6
				C139,70.9,140.7,71.4,142.8,71.4z"/>
			<path class="st1" d="M183.8,92c-4.8,0-8.6-1.1-11.4-3.2c-2.7-2.2-4.6-5.1-5.7-8.9h8.6c0.5,1.6,1.5,2.8,3.1,3.5
				c1.5,0.7,3.3,1.1,5.5,1.1c2.9,0,5.1-0.7,6.8-2c1.7-1.4,2.5-3.3,2.5-5.8v-6.1h-0.4c-0.9,1.2-2.3,2.4-4.1,3.4c-1.9,1-4,1.6-6.6,1.6
				c-2.3,0-4.5-0.4-6.4-1.2c-1.9-0.8-3.6-1.9-5.1-3.5c-1.4-1.5-2.5-3.4-3.3-5.7c-0.8-2.3-1.2-4.9-1.2-7.8c0-2.9,0.4-5.5,1.2-7.8
				c0.8-2.3,1.9-4.2,3.3-5.7c1.4-1.5,3.1-2.7,5.1-3.5c1.9-0.8,4.1-1.2,6.4-1.2c2.5,0,4.7,0.5,6.6,1.6c1.9,1.1,3.4,2.3,4.5,3.7h0.4
				l1.1-4.6h6.8v36.7c0,4.8-1.5,8.6-4.4,11.3C193.9,90.7,189.5,92,183.8,92z M183.5,68.2c1.3,0,2.6-0.2,3.7-0.7
				c1.2-0.5,2.2-1.2,3-2.1c0.9-0.9,1.5-2,2-3.3c0.5-1.3,0.7-2.8,0.7-4.5c0-1.7-0.2-3.2-0.7-4.5c-0.5-1.3-1.2-2.4-2.1-3.3
				c-0.9-0.9-1.9-1.6-3.1-2.1c-1.2-0.5-2.4-0.7-3.7-0.7c-2.7,0-4.9,0.9-6.7,2.8c-1.7,1.9-2.6,4.5-2.6,7.9c0,3.4,0.9,6.1,2.6,7.9
				C178.5,67.2,180.8,68.2,183.5,68.2z"/>
			<path class="st1" d="M209.1,40h6.8l1.1,4.6h0.4c1.1-1.6,2.4-2.8,4-3.5c1.5-0.7,3.3-1.1,5.3-1.1h4.6v7.8h-3.9
				c-3,0-5.5,0.8-7.3,2.5c-1.8,1.7-2.7,3.9-2.7,6.8v20.7h-8.2V40z"/>
			<path class="st1" d="M238.3,40h8.2v37.8h-8.2V40z"/>
			<path class="st1" d="M254.8,40h6.8l1.1,4.6h0.4c1.1-1.6,2.4-2.8,4-3.5c1.5-0.7,3.3-1.1,5.3-1.1h4.6v7.8H273c-3,0-5.5,0.8-7.3,2.5
				c-1.8,1.7-2.7,3.9-2.7,6.8v20.7h-8.2V40z"/>
			<path class="st1" d="M297.4,78.5c-2.7,0-5.1-0.4-7.3-1.3c-2.2-0.9-4.1-2.1-5.6-3.8c-1.6-1.7-2.8-3.7-3.6-6.1
				c-0.9-2.4-1.3-5.2-1.3-8.3c0-3.1,0.4-5.9,1.3-8.3c0.9-2.4,2.1-4.5,3.6-6.1c1.6-1.7,3.4-2.9,5.6-3.8c2.2-0.9,4.6-1.3,7.3-1.3
				c2.7,0,5.1,0.4,7.3,1.3c2.2,0.9,4.1,2.1,5.6,3.8c1.6,1.7,2.8,3.7,3.6,6.1c0.9,2.4,1.3,5.2,1.3,8.3c0,3.1-0.4,5.9-1.3,8.3
				c-0.9,2.4-2.1,4.5-3.6,6.1c-1.6,1.7-3.4,2.9-5.6,3.8C302.5,78.1,300.1,78.5,297.4,78.5z M297.4,71c1.3,0,2.6-0.2,3.7-0.7
				c1.2-0.5,2.2-1.2,3.1-2.2c0.9-1,1.6-2.3,2.1-3.8c0.5-1.5,0.7-3.3,0.7-5.3c0-2-0.2-3.8-0.7-5.3c-0.5-1.5-1.2-2.8-2.1-3.8
				c-0.9-1-1.9-1.7-3.1-2.2c-1.2-0.5-2.4-0.7-3.7-0.7c-1.3,0-2.6,0.2-3.7,0.7c-1.2,0.5-2.2,1.2-3.1,2.2c-0.9,1-1.6,2.3-2.1,3.8
				c-0.5,1.5-0.7,3.3-0.7,5.3c0,2,0.2,3.8,0.7,5.3c0.5,1.5,1.2,2.8,2.1,3.8c0.9,1,1.9,1.7,3.1,2.2C294.9,70.8,296.1,71,297.4,71z"/>
			<path class="st1" d="M334.3,78.5c-2,0-3.9-0.4-5.6-1.1c-1.7-0.7-3.2-1.8-4.4-3.1c-1.2-1.3-2.2-2.9-2.9-4.8c-0.7-1.9-1-4-1-6.3V40
				h8.2v22.4c0,2.7,0.7,4.8,2.2,6.3c1.4,1.5,3.3,2.2,5.7,2.2c1.2,0,2.4-0.2,3.4-0.7c1-0.5,1.9-1.1,2.6-1.9c0.7-0.8,1.3-1.7,1.6-2.8
				c0.4-1.1,0.6-2.2,0.6-3.4V40h8.2v37.8h-6.8l-1.1-4.6h-0.4c-1.1,1.8-2.6,3.1-4.4,4C338.5,78.1,336.5,78.5,334.3,78.5z"/>
			<path class="st1" d="M367.3,75c-1.9-1.8-2.8-4.4-2.8-7.6v-20h-6.1V40h6.1l1.1-10h7.1v10h9.3v7.5h-9.3v18.9c0,1.1,0.3,2,1,2.8
				c0.7,0.8,1.7,1.1,2.9,1.1h5.3v7.5h-6.8C371.8,77.8,369.1,76.9,367.3,75z"/>
			<path class="st1" d="M403.6,78.5c-2.8,0-5.2-0.4-7.5-1.3c-2.2-0.9-4.1-2.1-5.7-3.8c-1.6-1.7-2.8-3.7-3.6-6.1
				c-0.9-2.4-1.3-5.2-1.3-8.3c0-3.1,0.4-5.9,1.3-8.3c0.9-2.4,2.1-4.5,3.6-6.1c1.6-1.7,3.4-2.9,5.6-3.8c2.2-0.9,4.6-1.3,7.3-1.3
				c2.9,0,5.4,0.5,7.6,1.5c2.2,1,4.1,2.3,5.6,4c1.5,1.7,2.7,3.7,3.5,5.9c0.8,2.3,1.2,4.6,1.2,7.1c0,0.5,0,1-0.1,1.4
				c0,0.4-0.1,0.8-0.1,1.1c0,0.4-0.1,0.7-0.1,1h-26.7c0.2,2.9,1.1,5.2,2.8,6.9c1.7,1.8,4,2.7,6.8,2.7c2,0,3.6-0.4,4.7-1.2
				c1.2-0.8,2.2-1.8,3.1-3.1h8.9c-0.5,1.6-1.3,3.1-2.2,4.6c-1,1.4-2.1,2.7-3.5,3.7c-1.4,1.1-3,1.9-4.8,2.5
				C408,78.2,405.9,78.5,403.6,78.5z M412.6,55c-0.4-2.3-1.3-4.3-2.9-5.8c-1.5-1.6-3.7-2.4-6.4-2.4c-2.5,0-4.6,0.7-6.1,2.2
				c-1.6,1.5-2.6,3.5-3.1,6H412.6z"/>
			<path class="st1" d="M427.2,40h6.8l1.1,4.6h0.4c1.1-1.6,2.4-2.8,4-3.5c1.5-0.7,3.3-1.1,5.3-1.1h4.6v7.8h-3.9
				c-3,0-5.5,0.8-7.3,2.5c-1.8,1.7-2.7,3.9-2.7,6.8v20.7h-8.2V40z"/>
		</g>
	</g>
</g>
</svg>
