<?xml version="1.0" encoding="utf-8"?>
<!-- Generator: Adobe Illustrator 19.0.0, SVG Export Plug-In . SVG Version: 6.00 Build 0)  -->
<svg version="1.1" id="Ebene_1" xmlns="http://www.w3.org/2000/svg" xmlns:xlink="http://www.w3.org/1999/xlink" x="0px" y="0px"
	 viewBox="0 0 384 117.7" style="enable-background:new 0 0 384 117.7;" xml:space="preserve">
<style type="text/css">
	.st0{fill:#4E3629;}
	.st1{fill:#8F993E;}
</style>
<g>
	<g>
		<path class="st0" d="M151,70.3v-0.5c-1.2,1-2.6,1.8-4.1,2.3c-1.5,0.6-3,0.8-4.7,0.8c-3.9,0-7.2-1.4-10-4.1s-4.1-6.1-4.1-10
			c0-3.9,1.4-7.2,4.1-10c2.8-2.8,6.1-4.1,10-4.1c3.8,0,7.2,1.4,10,4.1c2.8,2.8,4.1,6.1,4.1,10v11.5c0,0.7-0.3,1.4-0.8,1.9
			c-0.5,0.5-1.1,0.8-1.9,0.8c-0.7,0-1.4-0.3-1.9-0.8C151.3,71.6,151,71,151,70.3z M142.2,50.1c-1.2,0-2.4,0.2-3.5,0.7
			c-1.1,0.5-2,1.1-2.8,1.9c-0.8,0.8-1.4,1.7-1.9,2.8c-0.5,1.1-0.7,2.2-0.7,3.4c0,1.2,0.2,2.4,0.7,3.4c0.5,1.1,1.1,2,1.9,2.8
			s1.7,1.4,2.8,1.9c1.1,0.5,2.3,0.7,3.5,0.7c1.2,0,2.4-0.2,3.4-0.7c1.1-0.5,2-1.1,2.8-1.9s1.4-1.7,1.9-2.8c0.5-1.1,0.7-2.2,0.7-3.4
			s-0.2-2.4-0.7-3.4c-0.5-1-1.1-2-1.9-2.8s-1.7-1.5-2.8-1.9S143.4,50.1,142.2,50.1z"/>
		<path class="st0" d="M183.1,69.8c-2.5,2.1-5.5,3.1-8.8,3.1c-3.9,0-7.2-1.4-10-4.1s-4.1-6.1-4.1-10c0-3.9,1.4-7.2,4.1-10
			c2.8-2.8,6.1-4.1,10-4.1c3.8,0,7.2,1.4,10,4.1c2.8,2.8,4.1,6.1,4.1,10v14c0,1.2-0.2,2.4-0.6,3.4s-0.9,2-1.5,2.9
			c-0.7,0.9-1.4,1.7-2.3,2.4c-0.9,0.7-1.9,1.4-2.9,1.8c-1,0.5-2.1,0.9-3.2,1.1c-1.1,0.3-2.3,0.4-3.4,0.4c-1.4,0-2.6-0.2-3.9-0.5
			c-1.3-0.3-2.5-0.8-3.7-1.5c-1.2-0.7-2.2-1.5-3.2-2.5c-1-1-1.8-2.1-2.4-3.3c-0.3-0.4-0.4-0.8-0.4-1.4c0-0.7,0.2-1.4,0.7-1.9
			c0.5-0.5,1.1-0.7,1.9-0.7c0.5,0,0.9,0.1,1.2,0.3s0.8,0.7,1.4,1.6c0.6,0.8,1.1,1.4,1.5,1.9c1.9,1.9,4.2,2.9,6.9,2.9
			c2.7,0,5-1,6.9-2.8c1.2-1.4,1.7-2.8,1.7-4.1v-3H183.1z M174.3,50.1c-1.2,0-2.4,0.2-3.5,0.7c-1.1,0.5-2,1.1-2.8,1.9
			c-0.8,0.8-1.4,1.7-1.9,2.8c-0.5,1.1-0.7,2.2-0.7,3.4c0,1.2,0.2,2.4,0.7,3.4c0.5,1.1,1.1,2,1.9,2.8s1.7,1.4,2.8,1.9
			c1.1,0.5,2.3,0.7,3.5,0.7c1.2,0,2.4-0.2,3.4-0.7c1.1-0.5,2-1.1,2.8-1.9s1.4-1.7,1.9-2.8c0.5-1.1,0.7-2.2,0.7-3.4s-0.2-2.4-0.7-3.4
			c-0.5-1-1.1-2-1.9-2.8s-1.7-1.5-2.8-1.9S175.5,50.1,174.3,50.1z"/>
		<path class="st0" d="M198.6,47.4v0.5c1.2-1,2.6-1.8,4.1-2.3c1.5-0.6,3-0.8,4.7-0.8c0.7,0,1.5,0.1,2.4,0.2c0.8,0.1,1.6,0.3,2.3,0.6
			c0.7,0.3,1.3,0.6,1.7,1.1c0.5,0.5,0.7,1,0.7,1.7c0,0.4-0.1,0.7-0.2,1c-0.2,0.3-0.3,0.6-0.6,0.8c-0.2,0.2-0.5,0.5-0.8,0.6
			c-0.3,0.1-0.7,0.2-1,0.2s-0.7-0.1-1.1-0.3c-1.1-0.4-2.2-0.6-3.4-0.6c-1.2,0-2.4,0.2-3.4,0.7c-1.1,0.5-2,1.1-2.8,1.9
			s-1.4,1.7-1.9,2.8c-0.5,1.1-0.7,2.2-0.7,3.4v11.4c0,0.7-0.3,1.4-0.8,1.9c-0.5,0.5-1.1,0.8-1.9,0.8c-0.7,0-1.4-0.3-1.9-0.8
			c-0.5-0.5-0.8-1.1-0.8-1.9V47.4c0-0.7,0.3-1.4,0.8-1.9c0.5-0.5,1.1-0.8,1.9-0.8c0.7,0,1.4,0.3,1.9,0.8
			C198.3,46.1,198.6,46.7,198.6,47.4z"/>
		<path class="st0" d="M223.9,39.8c0,0.8-0.3,1.6-0.9,2.2c-0.6,0.6-1.4,0.9-2.2,0.9c-0.8,0-1.6-0.3-2.2-0.9
			c-0.6-0.6-0.9-1.4-0.9-2.2s0.3-1.6,0.9-2.2c0.6-0.6,1.4-0.9,2.2-0.9c0.8,0,1.6,0.3,2.2,0.9C223.7,38.2,223.9,39,223.9,39.8z
			 M218.2,70.3V47.4c0-0.7,0.3-1.4,0.8-1.9c0.5-0.5,1.1-0.8,1.9-0.8c0.7,0,1.4,0.3,1.9,0.8s0.8,1.1,0.8,1.9v22.9
			c0,0.7-0.3,1.4-0.8,1.9s-1.1,0.8-1.9,0.8c-0.7,0-1.4-0.3-1.9-0.8C218.5,71.6,218.2,71,218.2,70.3z"/>
		<path class="st0" d="M234.6,47.4v0.5c1.2-1,2.6-1.8,4.1-2.3c1.5-0.6,3-0.8,4.7-0.8c0.7,0,1.5,0.1,2.4,0.2c0.8,0.1,1.6,0.3,2.3,0.6
			c0.7,0.3,1.3,0.6,1.7,1.1s0.7,1,0.7,1.7c0,0.4-0.1,0.7-0.2,1c-0.2,0.3-0.3,0.6-0.6,0.8c-0.2,0.2-0.5,0.5-0.8,0.6
			c-0.3,0.1-0.7,0.2-1,0.2c-0.3,0-0.7-0.1-1.1-0.3c-1.1-0.4-2.2-0.6-3.4-0.6c-1.2,0-2.4,0.2-3.4,0.7c-1.1,0.5-2,1.1-2.8,1.9
			s-1.4,1.7-1.9,2.8c-0.5,1.1-0.7,2.2-0.7,3.4v11.4c0,0.7-0.3,1.4-0.8,1.9c-0.5,0.5-1.1,0.8-1.9,0.8c-0.7,0-1.4-0.3-1.9-0.8
			c-0.5-0.5-0.8-1.1-0.8-1.9V47.4c0-0.7,0.3-1.4,0.8-1.9c0.5-0.5,1.1-0.8,1.9-0.8c0.7,0,1.4,0.3,1.9,0.8
			C234.4,46.1,234.6,46.7,234.6,47.4z"/>
		<path class="st0" d="M279.1,58.9c0,3.9-1.4,7.2-4.1,10c-2.8,2.8-6.1,4.1-10,4.1s-7.2-1.4-10-4.1c-2.8-2.8-4.1-6.1-4.1-10
			c0-3.9,1.4-7.2,4.1-10c2.8-2.8,6.1-4.1,10-4.1c3.8,0,7.2,1.4,10,4.1c1.4,1.4,2.4,2.9,3.1,4.6C278.7,55.1,279.1,56.9,279.1,58.9z
			 M265,50.1c-1.2,0-2.4,0.2-3.5,0.7c-1.1,0.5-2,1.1-2.8,1.9c-0.8,0.8-1.4,1.7-1.9,2.8c-0.5,1.1-0.7,2.2-0.7,3.4
			c0,1.2,0.2,2.4,0.7,3.4c0.5,1.1,1.1,2,1.9,2.8s1.7,1.4,2.8,1.9c1.1,0.5,2.3,0.7,3.5,0.7s2.4-0.2,3.4-0.7c1.1-0.5,2-1.1,2.8-1.9
			s1.4-1.7,1.9-2.8c0.5-1.1,0.7-2.2,0.7-3.4s-0.2-2.4-0.7-3.4c-0.5-1-1.1-2-1.9-2.8s-1.7-1.5-2.8-1.9
			C267.4,50.3,266.2,50.1,265,50.1z"/>
		<path class="st0" d="M306.6,72.9c-0.7,0-1.4-0.2-1.9-0.7c-0.5-0.5-0.7-1.1-0.7-1.9c-1.2,0.9-2.4,1.6-3.7,2
			c-1.3,0.4-2.7,0.6-4.2,0.6c-1.8,0-3.5-0.3-5.1-1.1c-1.6-0.7-3-1.6-4.2-2.8c-1.2-1.2-2.1-2.6-2.8-4.2c-0.7-1.6-1.1-3.3-1.1-5.1
			V47.4c0-0.7,0.3-1.4,0.8-1.9c0.5-0.5,1.1-0.8,1.9-0.8c0.7,0,1.4,0.3,1.9,0.8c0.5,0.5,0.8,1.1,0.8,1.9v12.4c0,1.1,0.2,2.1,0.6,3
			c0.4,1,1,1.8,1.7,2.5c0.7,0.7,1.5,1.3,2.5,1.7c1,0.4,2,0.6,3,0.6s2.1-0.2,3-0.6s1.8-1,2.5-1.7c0.7-0.7,1.3-1.6,1.7-2.5
			c0.4-1,0.6-2,0.6-3V47.4c0-0.7,0.3-1.4,0.8-1.9c0.5-0.5,1.1-0.8,1.9-0.8s1.4,0.3,1.9,0.8s0.8,1.1,0.8,1.9v22.9
			c0,0.7-0.3,1.4-0.8,1.9C308,72.7,307.3,72.9,306.6,72.9z"/>
		<path class="st0" d="M315.3,44.8h1.2v-9.5c0-0.7,0.3-1.4,0.8-1.9c0.5-0.5,1.1-0.8,1.9-0.8c0.7,0,1.4,0.3,1.9,0.8
			c0.5,0.5,0.8,1.1,0.8,1.9v9.5h3.2c0.7,0,1.4,0.3,1.9,0.8c0.5,0.5,0.7,1.1,0.7,1.9s-0.2,1.4-0.7,1.9c-0.5,0.5-1.1,0.8-1.9,0.8h-3.2
			v12.6c0,3.3,1.7,5,5,5c0.7,0,1.4,0.3,1.9,0.8c0.5,0.5,0.7,1.1,0.7,1.9c0,0.7-0.2,1.4-0.7,1.9c-0.5,0.5-1.1,0.8-1.9,0.8
			c-6.9,0-10.3-3.4-10.3-10.3V50.1h-1.2c-0.7,0-1.3-0.3-1.8-0.8c-0.5-0.5-0.8-1.1-0.8-1.9c0-0.7,0.3-1.4,0.8-1.9
			C314,45.1,314.7,44.8,315.3,44.8z"/>
		<path class="st0" d="M352.2,65.1c0.7,0,1.4,0.2,1.9,0.7c0.5,0.5,0.7,1.1,0.7,1.9c0,0.7-0.2,1.4-0.7,1.9c-2.6,2.3-5.6,3.4-9.2,3.4
			c-3.9,0-7.2-1.4-10-4.1s-4.1-6.1-4.1-10c0-3.9,1.4-7.2,4.1-10c2.8-2.8,6.1-4.1,10-4.1c3.8,0,7.2,1.4,10,4.1
			c1.4,1.4,2.4,2.9,3.1,4.5c0.7,1.7,1,3.5,1,5.4c0,0.7-0.3,1.4-0.8,1.9c-0.5,0.5-1.1,0.7-1.9,0.7h-19.9c0.3,0.9,0.7,1.7,1.2,2.5
			c0.6,0.8,1.2,1.4,2,2c0.7,0.6,1.6,1,2.5,1.3c0.9,0.3,1.8,0.5,2.8,0.5c1.1,0,2.1-0.2,3-0.5c0.9-0.3,1.8-0.8,2.5-1.5
			C350.9,65.3,351.5,65.1,352.2,65.1z M353.3,56.3c-0.3-0.9-0.7-1.7-1.3-2.5c-0.6-0.8-1.2-1.4-2-2s-1.6-1-2.5-1.3
			c-0.9-0.3-1.8-0.5-2.8-0.5c-1,0-1.9,0.2-2.8,0.5c-0.9,0.3-1.7,0.7-2.5,1.3c-0.7,0.6-1.4,1.2-2,2s-1,1.6-1.2,2.5H353.3z"/>
		<path class="st0" d="M368.1,47.4v0.5c1.2-1,2.6-1.8,4.1-2.3c1.5-0.6,3-0.8,4.7-0.8c0.7,0,1.5,0.1,2.4,0.2c0.8,0.1,1.6,0.3,2.3,0.6
			c0.7,0.3,1.3,0.6,1.7,1.1s0.7,1,0.7,1.7c0,0.4-0.1,0.7-0.2,1c-0.2,0.3-0.3,0.6-0.6,0.8c-0.2,0.2-0.5,0.5-0.8,0.6
			c-0.3,0.1-0.7,0.2-1,0.2s-0.7-0.1-1.1-0.3c-1.1-0.4-2.2-0.6-3.4-0.6c-1.2,0-2.4,0.2-3.4,0.7c-1.1,0.5-2,1.1-2.8,1.9
			s-1.4,1.7-1.9,2.8c-0.5,1.1-0.7,2.2-0.7,3.4v11.4c0,0.7-0.3,1.4-0.8,1.9c-0.5,0.5-1.1,0.8-1.9,0.8s-1.4-0.3-1.9-0.8
			c-0.5-0.5-0.8-1.1-0.8-1.9V47.4c0-0.7,0.3-1.4,0.8-1.9s1.1-0.8,1.9-0.8s1.4,0.3,1.9,0.8C367.8,46.1,368.1,46.7,368.1,47.4z"/>
	</g>
	<g>
		<path class="st1" d="M110.4,56.8l3.7,3.7l3.6-3.6c-1-30.9-26-55.9-56.8-56.9l3.6,3.6l-3.7,3.7C87.6,8.3,109.3,30,110.4,56.8z"/>
		<g>
			<path class="st1" d="M3.6,53.2l3.7,3.7C8.3,30.1,30,8.4,56.8,7.3l3.7-3.7L56.9,0C26,1,1.1,26,0.1,56.8L3.6,53.2z"/>
			<path class="st1" d="M114.1,64.5l-3.7-3.7c-0.5,12.1-5.1,23.1-12.5,31.8L82.1,64.8h3.5c8.6,0,15.6-7,15.6-15.6
				c0-8.6-7-15.6-15.6-15.6H65c-2,0-3.7,1.6-3.7,3.7v34.1L40.7,35.4c-0.7-1.1-1.9-1.8-3.2-1.8c-1.3,0-2.5,0.7-3.2,1.8L10.5,76.8
				c-1.9-5-2.9-10.3-3.2-15.9l-3.7-3.7L0,60.8c1,30.9,26,55.9,56.8,56.9l-3.6-3.6l3.7-3.7c-18.2-0.7-34-10.8-42.6-25.6l23.3-40.3
				L62,86.7c0.8,1.4,2.5,2.1,4.1,1.7c1.6-0.5,2.7-1.9,2.7-3.5v-44h16.9c4.6,0,8.3,3.7,8.3,8.3s-3.7,8.3-8.3,8.3h-9.8
				c-1.3,0-2.5,0.7-3.2,1.8c-0.7,1.1-0.7,2.5,0,3.7l19.9,35c-8.6,7.4-19.5,12.1-31.7,12.5l-3.7,3.7l3.6,3.6
				c30.9-1,55.9-26,56.9-56.8L114.1,64.5z"/>
		</g>
	</g>
</g>
</svg>
